<?xml version="1.0" standalone="no"?>
<!DOCTYPE svg PUBLIC "-//W3C//DTD SVG 20010904//EN"
 "http://www.w3.org/TR/2001/REC-SVG-20010904/DTD/svg10.dtd">
<svg version="1.0" xmlns="http://www.w3.org/2000/svg"
 width="512.000000pt" height="512.000000pt" viewBox="0 0 512.000000 512.000000"
 preserveAspectRatio="xMidYMid meet">
<metadata>
Created by potrace 1.14, written by Peter Selinger 2001-2017
</metadata>
<g transform="translate(0.000000,512.000000) scale(0.100000,-0.100000)"
fill="#000000" stroke="none">
<path d="M2309 4065 c-435 -73 -726 -286 -905 -665 -35 -74 -114 -293 -114
-318 0 -7 25 17 55 53 240 282 494 377 829 310 128 -26 254 -115 491 -347 250
-246 351 -325 513 -407 61 -31 211 -85 262 -95 14 -2 48 -9 75 -15 28 -6 68
-13 90 -17 57 -10 393 -12 435 -3 19 4 54 10 77 13 154 20 325 84 463 174 166
107 293 255 395 457 60 117 78 164 116 295 l19 65 -38 -45 c-142 -171 -315
-292 -482 -335 -113 -29 -286 -24 -405 14 -61 19 -110 44 -179 91 -88 60 -100
71 -316 284 -255 251 -397 349 -611 424 -169 60 -264 74 -489 77 -131 2 -232
-2 -281 -10z"/>
<path d="M1140 2547 c-3 -3 -36 -7 -75 -11 -71 -6 -205 -35 -282 -61 -180 -61
-353 -180 -482 -331 -93 -109 -221 -351 -254 -484 -4 -14 -14 -47 -22 -75
l-15 -50 37 45 c41 49 144 153 183 185 77 62 241 146 287 147 2 0 25 6 53 13
74 19 247 12 340 -15 85 -24 184 -75 250 -128 57 -47 41 -31 231 -217 206
-201 255 -244 354 -310 197 -131 366 -192 620 -224 88 -12 382 -6 455 8 30 6
66 12 80 15 101 17 279 84 369 140 142 88 224 165 349 331 28 37 96 168 130
251 39 96 85 244 78 251 -2 2 -11 -8 -20 -22 -29 -44 -139 -156 -197 -200
-158 -122 -307 -174 -484 -169 -114 3 -176 15 -271 55 -109 45 -204 121 -414
329 -102 100 -229 215 -283 255 -248 186 -510 269 -857 274 -86 1 -158 0 -160
-2z"/>
</g>
</svg>
